<svg id="Layer_1" data-name="Layer 1" xmlns="http://www.w3.org/2000/svg" viewBox="0 0 1023.96 1023.53"><defs><style>.cls-1{fill:#0079b0;}.cls-2{fill:none;stroke:#c9297b;stroke-linecap:round;stroke-miterlimit:10;stroke-width:32.37px;}</style></defs><title>MPLSJRDevs</title><path class="cls-1" d="M304,263.39h28.79l11.88,43,4.08,16.77h.74l4-16.77,11.94-43H394.2V384.67H371V347.12c0-13.65,2.39-43.22,3.68-56.33h-.56l-9.31,32.55-9.43,29.22H342.05l-9.6-29.22-8.68-32.55h-.64c1.38,13.11,3.68,42.68,3.68,56.33v37.55H304Z" transform="translate(-0.02 -0.38)"/><path class="cls-1" d="M418.8,263.39h43c26.32,0,47.51,9.52,47.51,39,0,28.56-21.78,41.14-47.51,41.14H446.25v41.14H418.8Zm41.43,58.36c15,0,22.19-6.75,22.19-19.36s-7.74-17.22-22.19-17.22h-14v36.58Z" transform="translate(-0.02 -0.38)"/><path class="cls-1" d="M536.42,263.39h27.4v98.26h54v23H536.42Z" transform="translate(-0.02 -0.38)"/><path class="cls-1" d="M637.63,369.39l15.75-18.85c9.17,7.5,20.49,12.65,32.24,12.65s17-4.51,17-10.44c0-8.73-7.21-10.84-18.68-15.65l-15.8-6.74c-13.45-5.11-25.71-15.41-25.71-33.06,0-20.09,18.09-36.15,44.45-36.15A58.77,58.77,0,0,1,727.19,277l-13.83,17.3c-8.54-6.13-16.1-9.47-28-9.47-9,0-15.18,3.75-15.18,10.83,0,7.3,8.13,10,19.76,14.33l14.84,6.29c15.88,5.95,25.91,15.86,25.91,33,0,20.16-16.91,37.62-46.93,37.62A69.87,69.87,0,0,1,637.63,369.39Z" transform="translate(-0.02 -0.38)"/><path class="cls-1" d="M256.62,438.65h22.9L218.21,600.56h-22.9Z" transform="translate(-0.02 -0.38)"/><path class="cls-1" d="M315.52,545.62l18.14-29.1L305.12,503.9l4.32-13.4,30.14,8.09,2.3-33.16h14.41l2.29,33.16,30.14-8.09L393,503.9,364.5,516.52l18.14,29.1-12,8.27-21.53-26.51-21.53,26.51Z" transform="translate(-0.02 -0.38)"/><path class="cls-1" d="M415.91,553l15.77-17c6.94,8.65,15.14,13.32,23.16,13.32,12.34,0,18.68-5.39,18.68-22V472.47H426.15v-23H501v80.1C501,553.33,489.3,573,455.75,573,442.29,573,426.49,567.76,415.91,553Z" transform="translate(-0.02 -0.38)"/><path class="cls-1" d="M538.06,478.46h22.51l2.16,20.19h.65c9.08-15.11,22.69-22.43,37.43-22.43a38.13,38.13,0,0,1,17.73,3.72L613,503c-5.79-1.78-9.54-2.71-16.35-2.71-11.44,0-23.2,5.95-31.18,22.51v48h-27.4Z" transform="translate(-0.02 -0.38)"/><path class="cls-1" d="M650.52,545.62l18.14-29.1L640.12,503.9l4.32-13.4,30.14,8.09,2.3-33.16h14.41l2.29,33.16,30.14-8.09L728,503.9,699.5,516.52l18.14,29.1-12,8.27-21.53-26.51-21.52,26.51Z" transform="translate(-0.02 -0.38)"/><path class="cls-1" d="M815,438.65h22.9L776.55,600.56H753.64Z" transform="translate(-0.02 -0.38)"/><path class="cls-1" d="M306.35,635.62h33.51c35.19,0,58.32,18.42,58.32,60.08s-23.13,61.2-56.77,61.2H306.35Zm32,99.17c18.87,0,31.7-10.08,31.7-39.09s-12.83-38-31.7-38H333.8v77.07Z" transform="translate(-0.02 -0.38)"/><path class="cls-1" d="M415.15,710.68c0-30.21,23.31-48.34,48-48.34,28.47,0,43.47,19.22,43.47,44.31a79.18,79.18,0,0,1-1.15,12.26H435.46V700.55H487l-4.31,5.22c0-14.82-6.45-22.61-18.58-22.61-13.53,0-22.4,9.17-22.4,27.52,0,19.16,10.42,27.58,28.37,27.58,8.38,0,15.6-2.28,23.79-6.42l9.07,16.5a70.63,70.63,0,0,1-36.6,10.79C437.55,759.13,415.15,741.37,415.15,710.68Z" transform="translate(-0.02 -0.38)"/><path class="cls-1" d="M522.4,664.57h27.5l14.53,43.53c3,9.25,5.55,18.72,8.31,28.41h.74c2.76-9.69,5.2-19.16,8.25-28.41l14.54-43.53h26.17L588.6,756.9H557.19Z" transform="translate(-0.02 -0.38)"/><path class="cls-1" d="M638.11,745l11.64-17.09a70.34,70.34,0,0,0,37.25,11c10.16,0,14.65-3.38,14.65-7.92,0-5.14-4.48-7-22.6-10.84C653.94,714.71,644,705.5,644,691.24c0-17.2,16.06-28.9,42.43-28.9,16.46,0,30.36,6.47,40,12.61l-12.28,16.44a59.46,59.46,0,0,0-30.2-8.82c-8.55,0-12.79,3.06-12.79,7.39,0,5.13,5.67,6.33,21.32,9.84,28.49,6.38,36.42,14.49,36.42,29.53,0,16.71-15.94,29.8-45.57,29.8C666.79,759.13,649.76,752.75,638.11,745Z" transform="translate(-0.02 -0.38)"/><polyline class="cls-2" points="860.82 371.87 1001.08 512.13 860.82 652.39"/><polyline class="cls-2" points="651.76 860.38 511.5 1000.64 371.24 860.38"/><polyline class="cls-2" points="371.24 163.15 511.5 22.89 651.76 163.15"/><polyline class="cls-2" points="163.15 652.39 22.89 512.13 163.15 371.87"/></svg>
